<?xml version="1.0" encoding="UTF-8"?>
<!DOCTYPE svg PUBLIC "-//W3C//DTD SVG 1.1//EN" "http://www.w3.org/Graphics/SVG/1.1/DTD/svg11.dtd">
<!-- Creator: CorelDRAW -->
<svg xmlns="http://www.w3.org/2000/svg" xml:space="preserve" width="594mm" height="420mm" style="shape-rendering:geometricPrecision; text-rendering:geometricPrecision; image-rendering:optimizeQuality; fill-rule:evenodd; clip-rule:evenodd"
viewBox="0 0 594 420"
 xmlns:xlink="http://www.w3.org/1999/xlink">
 <defs>
  <style type="text/css">
   <![CDATA[
    .str0 {stroke:blue;stroke-linecap:round;stroke-linejoin:round}
    .str2 {stroke:lime;stroke-linecap:round;stroke-linejoin:round}
    .str1 {stroke:red;stroke-linecap:round;stroke-linejoin:round}
    .fil0 {fill:none}
   ]]>
  </style>
 </defs>
 <g id="图层_x0020_1">
  <metadata id="CorelCorpID_0Corel-Layer"/>
  <path id="face2-cut" class="fil0 str0" d="M155.516 356.737l10 0 0 -156 -10 0 0 2 1.3 0 0 2.2 -1.3 0 0 3 -3 0 0 -3 -1.3 0 0 -2.2 1.3 0 0 -2 -10 0 0 -3 -20 0 0 3 -46 0 0 -3 -20 0 0 3 -10 0 0 2 1.3 0 0 2.2 -1.3 0 0 3 -3 0 0 -3 -1.3 0 0 -2.2 1.3 0 0 -2 -10 0 0 156 10 0 0 -2 -1.3 0 0 -2.2 1.2 0 0 -3 3 0 0 3 1.3 0 0 2.2 -1.3 0 0 2 5 0 0 3 10 0 0 -3 76.2 0 0 3 10 0 0 -3 5 0 0 -2 -1.3 0 0 -2.2 1.2 0 0 -3 3 0 0 3 1.3 0 0 2.2 -1.3 0 0 2m-119 -20l3 0 0 10 -3 0 0 -10m3 -88l0 20 -3 0 0 -20 3 0m120 98l0 -10 3 0 0 10 -3 0m3 -98.1l0 20 -3 0 0 -20 3 0m-28 43.1l0 -3 20 0 0 3 -20 0m-70 -3l0 3 -20 0 0 -3 20 0m14 -39.9l0 18.8 -13 0 0 -18.8 13 0m20.4824 -17.0319l0.5176 -0.0681 0.5176 0.0681 0.4824 0.1998 0.4142 0.3179 0.3179 0.4142 0.1998 0.4824 0.0681 0.5176 -0.0681 0.5176 -0.1998 0.4824 -0.3179 0.4142 -0.4142 0.3179 -0.4824 0.1998 -0.5176 0.0681 -0.5176 -0.0681 -0.4824 -0.1998 -0.4142 -0.3179 -0.3179 -0.4142 -0.1998 -0.4824 -0.0681 -0.5176 0.0681 -0.5176 0.1998 -0.4824 0.3179 -0.4142 0.4142 -0.3179 0.4824 -0.1998"/>
  <path id="face3-cut" class="fil0 str0" d="M313.357 196.577l-10 0 0 2 1.3 0 0 2.2 -1.3 0 0 3 -3 0 0 -3 -1.2 0 0 -2.2 1.3 0 0 -2 -5 0 0 -3 -10 0 0 3 -76.2 0 0 -3 -10 0 0 3 -5 0 0 2 1.3 0 0 2.2 -1.3 0 0 3 -3 0 0 -3 -1.2 0 0 -2.2 1.3 0 0 -2 -10 0 0 156 10 0 0 -2 -1.3 0 0 -2.2 1.3 0 0 -3 3 0 0 3 1.3 0 0 2.2 -1.3 0 0 2 10 0 0 3 20 0 0 -3 46 0 0 3 20 0 0 -3 10 0 0 -2 -1.3 0 0 -2.2 1.3 0 0 -3 3 0 0 3 1.3 0 0 2.2 -1.3 0 0 2 10 0 0 -156m-110.768 71.0323l0.3127 -0.24 0.3642 -0.1508 0.3908 -0.0515 0.3908 0.0515 0.3642 0.1508 0.3127 0.24 0.24 0.3127 0.1508 0.3642 0.0515 0.3908 -0.0515 0.3908 -0.1508 0.3642 -0.24 0.3127 -0.3127 0.24 -0.3642 0.1508 -0.3908 0.0515 -0.3908 -0.0515 -0.3642 -0.1508 -0.3127 -0.24 -0.24 -0.3127 -0.1508 -0.3642 -0.0515 -0.3908 0.0515 -0.3908 0.1508 -0.3642 0.24 -0.3127m51.598 14.0371l0.3025 0.2322 0.2321 0.3025 0.146 0.3522 0.0497 0.3781 -0.0497 0.378 -0.146 0.3523 -0.2321 0.3025 -0.3025 0.2321 -0.3523 0.1459 -0.378 0.0498 -0.378 -0.0498 -0.3523 -0.1459 -0.3025 -0.2321 -0.2321 -0.3025 -0.146 -0.3523 -0.0497 -0.378 0.0497 -0.3781 0.146 -0.3522 0.2321 -0.3025 0.3025 -0.2322 0.3523 -0.1459 0.378 -0.0498 0.378 0.0498 0.3523 0.1459m-0.2753 30.4383l-0.3642 0.1508 -0.3908 0.0515 -0.3908 -0.0515 -0.3642 -0.1508 -0.3127 -0.24 -0.24 -0.3127 -0.1508 -0.3642 -0.0515 -0.3908 0.0515 -0.3908 0.1508 -0.3642 0.24 -0.3127 0.3127 -0.24 0.3642 -0.1508 0.3908 -0.0515 0.3908 0.0515 0.3642 0.1508 0.3127 0.24 0.24 0.3127 0.1508 0.3642 0.0515 0.3908 -0.0515 0.3908 -0.1508 0.3642 -0.24 0.3127 -0.3127 0.24m-49.3965 5.0831l-0.1508 0.3642 -0.24 0.3127 -0.3127 0.24 -0.3642 0.1508 -0.3908 0.0515 -0.3908 -0.0515 -0.3642 -0.1508 -0.3127 -0.24 -0.24 -0.3127 -0.1508 -0.3642 -0.0515 -0.3908 0.0515 -0.3908 0.1508 -0.3642 0.24 -0.3127 0.3127 -0.24 0.3642 -0.1508 0.3908 -0.0515 0.3908 0.0515 0.3642 0.1508 0.3127 0.24 0.24 0.3127 0.1508 0.3642 0.0515 0.3908 -0.0515 0.3908m105.842 -110.591l0 10 -3 0 0 -10 3 0m-3 106l0 -20 3 0 0 20 -3 0m-123 -20.5l3 0 0 10 -3 0 0 -10m0 -85.5l3 0 0 10 -3 0 0 -10m8 58l0 -3 20 0 0 3 -20 0m110 0l-20 0 0 -3 20 0 0 3"/>
  <polyline id="face0-cut" class="fil0 str0" points="221.978,149.206 224.978,149.206 224.978,162.206 221.978,162.206 221.978,149.206 "/>
  <polyline id="face0-cut_0" class="fil0 str0" points="248.978,149.206 251.978,149.206 251.978,162.206 248.978,162.206 248.978,149.206 "/>
  <polyline id="face0-cut_1" class="fil0 str0" points="221.927,114.216 221.539,114.267 221.15,114.216 220.789,114.066 220.478,113.828 220.239,113.517 220.09,113.155 220.039,112.767 220.09,112.379 220.239,112.017 220.478,111.706 220.789,111.468 221.15,111.318 221.539,111.267 221.927,111.318 222.289,111.468 222.599,111.706 222.837,112.017 222.987,112.379 223.039,112.767 222.987,113.155 222.837,113.517 222.599,113.828 222.289,114.066 221.927,114.216 "/>
  <polyline id="face0-cut_2" class="fil0 str0" points="238.427,129.318 238.478,129.706 238.427,130.094 238.277,130.456 238.039,130.767 237.728,131.005 237.367,131.155 236.978,131.206 236.59,131.155 236.228,131.005 235.918,130.767 235.679,130.456 235.529,130.094 235.478,129.706 235.529,129.318 235.679,128.956 235.918,128.645 236.228,128.407 236.59,128.257 236.978,128.206 237.367,128.257 237.728,128.407 238.039,128.645 238.277,128.956 238.427,129.318 "/>
  <polyline id="face0-cut_3" class="fil0 str0" points="254.15,111.318 254.539,111.267 254.927,111.318 255.289,111.468 255.599,111.706 255.838,112.017 255.987,112.379 256.039,112.767 255.987,113.155 255.838,113.517 255.599,113.828 255.289,114.066 254.927,114.216 254.539,114.267 254.15,114.216 253.789,114.066 253.478,113.828 253.239,113.517 253.09,113.155 253.039,112.767 253.09,112.379 253.239,112.017 253.478,111.706 253.789,111.468 254.15,111.318 "/>
  <polyline id="face0-cut_4" class="fil0 str0" points="235.529,97.094 235.478,96.7058 235.529,96.3176 235.679,95.9558 235.918,95.6451 236.228,95.4068 236.59,95.2569 236.978,95.2058 237.367,95.2569 237.728,95.4068 238.039,95.6451 238.277,95.9558 238.427,96.3176 238.478,96.7058 238.427,97.094 238.277,97.4558 238.039,97.7665 237.728,98.0048 237.367,98.1547 236.978,98.2058 236.59,98.1547 236.228,98.0048 235.918,97.7665 235.679,97.4558 235.529,97.094 "/>
  <polyline id="face0-cut_5" class="fil0 str0" points="201.978,173.206 271.978,173.206 271.978,176.206 291.978,176.206 291.978,173.206 296.978,173.206 296.978,168.206 299.978,168.206 299.978,148.206 296.978,148.206 296.978,78.2062 299.978,78.2062 299.978,58.2062 296.978,58.2062 296.978,53.2062 291.978,53.2062 291.978,50.2062 271.978,50.2062 271.978,53.2062 201.978,53.2062 201.978,50.2062 181.978,50.2062 181.978,53.2062 176.978,53.2062 176.978,58.2062 173.978,58.2062 173.978,78.2062 176.978,78.2062 176.978,148.206 191.978,148.206 191.978,163.206 176.978,163.206 176.978,173.206 181.978,173.206 181.978,176.206 201.978,176.206 201.978,173.206 "/>
  <path id="face0-interior" class="fil0 str1" d="M201.978 173.206m70 0m0 3m20 0m0 -3m5 0m0 -5m3 0m0 -20m-3 0m0 -70m3 0m0 -20m-3 0m0 -5m-5 0m0 -3m-20 0m0 3m-70 0m0 -3m-20 0m0 3m-5 0m0 5m-3 0m0 20m3 0m0 70m15 0m0 15m-15 0m0 10m5 0m0 3m20 0m33.5511 -89.1118m-0.0511 -0.3882m0.0511 -0.3882m0.1499 -0.3618m0.2383 -0.3107m0.3107 -0.2383m0.3618 -0.1499m0.3882 -0.0511m0.3882 0.0511m0.3618 0.1499m0.3107 0.2383m0.2383 0.3107m0.1499 0.3618m0.0511 0.3882m-0.0511 0.3882m-0.1499 0.3618m-0.2383 0.3107m-0.3107 0.2383m-0.3618 0.1499m-0.3882 0.0511m-0.3882 -0.0511m-0.3618 -0.1499m-0.3107 -0.2383m-0.2383 -0.3107m27.4108 24.3011m0.3882 -0.0511m0.3882 0.0511m0.3618 0.1499m0.3107 0.2383m0.2383 0.3107m0.1499 0.3618m0.0511 0.3882m-0.0511 0.3882m-0.1499 0.3618m-0.2383 0.3107m-0.3107 0.2383m-0.3618 0.1499m-0.3882 0.0511m-0.3882 -0.0511m-0.3618 -0.1499m-0.3107 -0.2383m-0.2383 -0.3107m-0.1499 -0.3618m-0.0511 -0.3882m0.0511 -0.3882m0.1499 -0.3618m0.2383 -0.3107m0.3107 -0.2383m-24.3011 27.4108m0.0511 0.3882m-0.0511 0.3882m-0.1499 0.3618m-0.2383 0.3107m-0.3107 0.2383m-0.3618 0.1499m-0.3882 0.0511m-0.3882 -0.0511m-0.3618 -0.1499m-0.3107 -0.2383m-0.2383 -0.3107m-0.1499 -0.3618m-0.0511 -0.3882m0.0511 -0.3882m0.1499 -0.3618m0.2383 -0.3107m0.3107 -0.2383m0.3618 -0.1499m0.3882 -0.0511m0.3882 0.0511m0.3618 0.1499m0.3107 0.2383m0.2383 0.3107m-27.4108 -24.3011m-0.3882 0.0511m-0.3882 -0.0511m-0.3618 -0.1499m-0.3107 -0.2383m-0.2383 -0.3107m-0.1499 -0.3618m-0.0511 -0.3882m0.0511 -0.3882m0.1499 -0.3618m0.2383 -0.3107m0.3107 -0.2383m0.3618 -0.1499m0.3882 -0.0511m0.3882 0.0511m0.3618 0.1499m0.3107 0.2383m0.2383 0.3107m0.1499 0.3618m0.0511 0.3882m-0.0511 0.3882m-0.1499 0.3618m-0.2383 0.3107m-0.3107 0.2383m37.75 34.701m3 0m0 13m-3 0m-27 -13m3 0m0 13m-3 0"/>
  <path id="face0-interior_6" class="fil0 str2" d="M201.978 173.206m70 0m0 3m20 0m0 -3m5 0m0 -5m3 0m0 -20m-3 0m0 -70m3 0m0 -20m-3 0m0 -5m-5 0m0 -3m-20 0m0 3m-70 0m0 -3m-20 0m0 3m-5 0m0 5m-3 0m0 20m3 0m0 70m15 0m0 15m-15 0m0 10m5 0m0 3m20 0m33.5511 -89.1118m-0.0511 -0.3882m0.0511 -0.3882m0.1499 -0.3618m0.2383 -0.3107m0.3107 -0.2383m0.3618 -0.1499m0.3882 -0.0511m0.3882 0.0511m0.3618 0.1499m0.3107 0.2383m0.2383 0.3107m0.1499 0.3618m0.0511 0.3882m-0.0511 0.3882m-0.1499 0.3618m-0.2383 0.3107m-0.3107 0.2383m-0.3618 0.1499m-0.3882 0.0511m-0.3882 -0.0511m-0.3618 -0.1499m-0.3107 -0.2383m-0.2383 -0.3107m27.4108 24.3011m0.3882 -0.0511m0.3882 0.0511m0.3618 0.1499m0.3107 0.2383m0.2383 0.3107m0.1499 0.3618m0.0511 0.3882m-0.0511 0.3882m-0.1499 0.3618m-0.2383 0.3107m-0.3107 0.2383m-0.3618 0.1499m-0.3882 0.0511m-0.3882 -0.0511m-0.3618 -0.1499m-0.3107 -0.2383m-0.2383 -0.3107m-0.1499 -0.3618m-0.0511 -0.3882m0.0511 -0.3882m0.1499 -0.3618m0.2383 -0.3107m0.3107 -0.2383m-24.3011 27.4108m0.0511 0.3882m-0.0511 0.3882m-0.1499 0.3618m-0.2383 0.3107m-0.3107 0.2383m-0.3618 0.1499m-0.3882 0.0511m-0.3882 -0.0511m-0.3618 -0.1499m-0.3107 -0.2383m-0.2383 -0.3107m-0.1499 -0.3618m-0.0511 -0.3882m0.0511 -0.3882m0.1499 -0.3618m0.2383 -0.3107m0.3107 -0.2383m0.3618 -0.1499m0.3882 -0.0511m0.3882 0.0511m0.3618 0.1499m0.3107 0.2383m0.2383 0.3107m-27.4108 -24.3011m-0.3882 0.0511m-0.3882 -0.0511m-0.3618 -0.1499m-0.3107 -0.2383m-0.2383 -0.3107m-0.1499 -0.3618m-0.0511 -0.3882m0.0511 -0.3882m0.1499 -0.3618m0.2383 -0.3107m0.3107 -0.2383m0.3618 -0.1499m0.3882 -0.0511m0.3882 0.0511m0.3618 0.1499m0.3107 0.2383m0.2383 0.3107m0.1499 0.3618m0.0511 0.3882m-0.0511 0.3882m-0.1499 0.3618m-0.2383 0.3107m-0.3107 0.2383m37.75 34.701m3 0m0 13m-3 0m-27 -13m3 0m0 13m-3 0"/>
  <path id="face19-cut" class="fil0 str0" d="M36.5165 102.737l3 0 0 20 -3 0 0 -20m123 20l0 -20 3 0 0 20 -3 0m-6.9489 -71.1118l-0.0511 -0.3882 0.0511 -0.3882 0.1499 -0.3618 0.2383 -0.3107 0.3107 -0.2383 0.3618 -0.1499 0.3882 -0.0511 0.3882 0.0511 0.3618 0.1499 0.3107 0.2383 0.2383 0.3107 0.1499 0.3618 0.0511 0.3882 -0.0511 0.3882 -0.1499 0.3618 -0.2383 0.3107 -0.3107 0.2383 -0.3618 0.1499 -0.3882 0.0511 -0.3882 -0.0511 -0.3618 -0.1499 -0.3107 -0.2383 -0.2383 -0.3107 -0.1499 -0.3618m-106.102 -0.7764l0.0511 0.3882 -0.0511 0.3882 -0.1499 0.3618 -0.2383 0.3107 -0.3107 0.2383 -0.3618 0.1499 -0.3882 0.0511 -0.3882 -0.0511 -0.3618 -0.1499 -0.3107 -0.2383 -0.2383 -0.3107 -0.1499 -0.3618 -0.0511 -0.3882 0.0511 -0.3882 0.1499 -0.3618 0.2383 -0.3107 0.3107 -0.2383 0.3618 -0.1499 0.3882 -0.0511 0.3882 0.0511 0.3618 0.1499 0.3107 0.2383 0.2383 0.3107 0.1499 0.3618m0 123l0.0511 0.3882 -0.0511 0.3882 -0.1499 0.3618 -0.2383 0.3107 -0.3107 0.2383 -0.3618 0.1499 -0.3882 0.0511 -0.3882 -0.0511 -0.3618 -0.1499 -0.3107 -0.2383 -0.2383 -0.3107 -0.1499 -0.3618 -0.0511 -0.3882 0.0511 -0.3882 0.1499 -0.3618 0.2383 -0.3107 0.3107 -0.2383 0.3618 -0.1499 0.3882 -0.0511 0.3882 0.0511 0.3618 0.1499 0.3107 0.2383 0.2383 0.3107 0.1499 0.3618m106.102 0.7764l-0.0511 -0.3882 0.0511 -0.3882 0.1499 -0.3618 0.2383 -0.3107 0.3107 -0.2383 0.3618 -0.1499 0.3882 -0.0511 0.3882 0.0511 0.3618 0.1499 0.3107 0.2383 0.2383 0.3107 0.1499 0.3618 0.0511 0.3882 -0.0511 0.3882 -0.1499 0.3618 -0.2383 0.3107 -0.3107 0.2383 -0.3618 0.1499 -0.3882 0.0511 -0.3882 -0.0511 -0.3618 -0.1499 -0.3107 -0.2383 -0.2383 -0.3107 -0.1499 -0.3618m-76.0511 -121.888l-20 0 0 -3 20 0 0 3m66 -3l0 3 -20 0 0 -3 20 0m-66 123l0 3 -20 0 0 -3 20 0m66 0l0 3 -20 0 0 -3 20 0m-28.765 -6.8741l-14.235 1.8741 -14.235 -1.8741 -13.265 -5.4945 -11.3909 -8.7405 -8.7405 -11.3909 -5.4945 -13.265 -1.8741 -14.235 1.8741 -14.235 5.4945 -13.265 8.7405 -11.3909 11.3909 -8.7405 13.265 -5.4945 14.235 -1.8741 14.235 1.8741 13.265 5.4945 11.3909 8.7405 8.7405 11.3909 5.4945 13.265 1.8741 14.235 -1.8741 14.235 -5.4945 13.265 -8.7405 11.3909 -11.3909 8.7405 -13.265 5.4945m51.765 -119.126l-132 0 0 132 132 0 0 -132m-45.9994 46.8593l0 32 10 0 0 -32 -10 0m4.6118 3.5511l0.3882 -0.0511 0.3882 0.0511 0.3618 0.1499 0.3107 0.2383 0.2383 0.3107 0.1499 0.3618 0.0511 0.3882 -0.0511 0.3882 -0.1499 0.3618 -0.2383 0.3107 -0.3107 0.2383 -0.3618 0.1499 -0.3882 0.0511 -0.3882 -0.0511 -0.3618 -0.1499 -0.3107 -0.2383 -0.2383 -0.3107 -0.1499 -0.3618 -0.0511 -0.3882 0.0511 -0.3882 0.1499 -0.3618 0.2383 -0.3107 0.3107 -0.2383 0.3618 -0.1499m0.7764 24.8978l-0.3882 0.0511 -0.3882 -0.0511 -0.3618 -0.1499 -0.3107 -0.2383 -0.2383 -0.3107 -0.1499 -0.3618 -0.0511 -0.3882 0.0511 -0.3882 0.1499 -0.3618 0.2383 -0.3107 0.3107 -0.2383 0.3618 -0.1499 0.3882 -0.0511 0.3882 0.0511 0.3618 0.1499 0.3107 0.2383 0.2383 0.3107 0.1499 0.3618 0.0511 0.3882 -0.0511 0.3882 -0.1499 0.3618 -0.2383 0.3107 -0.3107 0.2383 -0.3618 0.1499"/>
  <path id="face7-cut" class="fil0 str0" d="M105.768 96.8272l0 -13 -5 0 0 3 -3.5 0 0 2 1.3 0 0 2.2 -1.3 0 0 3 -3 0 0 -3 -1.3 0 0 -2.2 1.3 0 0 -2 -8.5 0 0 -3 3 0 0 -6.5 -0.2215 -1.6823 -0.6493 -1.5677 -1.033 -1.3462 -1.3462 -1.033 -1.5677 -0.6493 -1.6823 -0.2215 -6.5 0 0 26 30 0m-23.8882 -20.9489l0.3882 -0.0511 0.3882 0.0511 0.3618 0.1499 0.3107 0.2383 0.2383 0.3107 0.1499 0.3618 0.0511 0.3882 -0.0511 0.3882 -0.1499 0.3618 -0.2383 0.3107 -0.3107 0.2383 -0.3618 0.1499 -0.3882 0.0511 -0.3882 -0.0511 -0.3618 -0.1499 -0.3107 -0.2383 -0.2383 -0.3107 -0.1499 -0.3618 -0.0511 -0.3882 0.0511 -0.3882 0.1499 -0.3618 0.2383 -0.3107 0.3107 -0.2383 0.3618 -0.1499"/>
  <path id="face8-cut" class="fil0 str0" d="M96.429 116.781l-16 0 0 10 26 0 0 -20 -10 0 0 4 2 0 0 -1.3 2.2 0 0 1.3 3 0 0 3 -3 0 0 1.3 -2.2 0 0 -1.3 -2 0 0 3m-9.8882 5.0511l0.3882 -0.0511 0.3882 0.0511 0.3618 0.1499 0.3107 0.2383 0.2383 0.3107 0.1499 0.3618 0.0511 0.3882 -0.0511 0.3882 -0.1499 0.3618 -0.2383 0.3107 -0.3107 0.2383 -0.3618 0.1499 -0.3882 0.0511 -0.3882 -0.0511 -0.3618 -0.1499 -0.3107 -0.2383 -0.2383 -0.3107 -0.1499 -0.3618 -0.0511 -0.3882 0.0511 -0.3882 0.1499 -0.3618 0.2383 -0.3107 0.3107 -0.2383 0.3618 -0.1499"/>
  <path id="face12-cut" class="fil0 str0" d="M57.7514 117.103l10 0 0 -2.3 3 0 0 -10.7 -3 0 0 -3 -10 0 0 3 -3 0 0 10.7 3 0 0 2.3m8 -12.25l0 4.5 -6 0 0 -4.5 6 0"/>
  <path id="face13-cut" class="fil0 str0" d="M83.2644 133.953l0 20 27 0 0 -20 -27 0m22.5511 3.3882l-0.0511 -0.3882 0.0511 -0.3882 0.1499 -0.3618 0.2383 -0.3107 0.3107 -0.2383 0.3618 -0.1499 0.3882 -0.0511 0.3882 0.0511 0.3618 0.1499 0.3107 0.2383 0.2383 0.3107 0.1499 0.3618 0.0511 0.3882 -0.0511 0.3882 -0.1499 0.3618 -0.2383 0.3107 -0.3107 0.2383 -0.3618 0.1499 -0.3882 0.0511 -0.3882 -0.0511 -0.3618 -0.1499 -0.3107 -0.2383 -0.2383 -0.3107 -0.1499 -0.3618m-19.9393 -1.8371l0.3882 -0.0511 0.3882 0.0511 0.3618 0.1499 0.3107 0.2383 0.2383 0.3107 0.1499 0.3618 0.0511 0.3882 -0.0511 0.3882 -0.1499 0.3618 -0.2383 0.3107 -0.3107 0.2383 -0.3618 0.1499 -0.3882 0.0511 -0.3882 -0.0511 -0.3618 -0.1499 -0.3107 -0.2383 -0.2383 -0.3107 -0.1499 -0.3618 -0.0511 -0.3882 0.0511 -0.3882 0.1499 -0.3618 0.2383 -0.3107 0.3107 -0.2383 0.3618 -0.1499m1.8371 15.0607l0.0511 0.3882 -0.0511 0.3882 -0.1499 0.3618 -0.2383 0.3107 -0.3107 0.2383 -0.3618 0.1499 -0.3882 0.0511 -0.3882 -0.0511 -0.3618 -0.1499 -0.3107 -0.2383 -0.2383 -0.3107 -0.1499 -0.3618 -0.0511 -0.3882 0.0511 -0.3882 0.1499 -0.3618 0.2383 -0.3107 0.3107 -0.2383 0.3618 -0.1499 0.3882 -0.0511 0.3882 0.0511 0.3618 0.1499 0.3107 0.2383 0.2383 0.3107 0.1499 0.3618m18.8011 -0.9108l0.3618 -0.1499 0.3882 -0.0511 0.3882 0.0511 0.3618 0.1499 0.3107 0.2383 0.2383 0.3107 0.1499 0.3618 0.0511 0.3882 -0.0511 0.3882 -0.1499 0.3618 -0.2383 0.3107 -0.3107 0.2383 -0.3618 0.1499 -0.3882 0.0511 -0.3882 -0.0511 -0.3618 -0.1499 -0.3107 -0.2383 -0.2383 -0.3107 -0.1499 -0.3618 -0.0511 -0.3882 0.0511 -0.3882 0.1499 -0.3618 0.2383 -0.3107 0.3107 -0.2383m-9.88 -8.9851l0.88 -0.1159 0.88 0.1159 0.82 0.3396 0.7042 0.5403 0.5403 0.7042 0.3396 0.82 0.1159 0.88 -0.1159 0.88 -0.3396 0.82 -0.5403 0.7042 -0.7042 0.5403 -0.82 0.3396 -0.88 0.1159 -0.88 -0.1159 -0.82 -0.3396 -0.7042 -0.5403 -0.5403 -0.7042 -0.3396 -0.82 -0.1159 -0.88 0.1159 -0.88 0.3396 -0.82 0.5403 -0.7042 0.7042 -0.5403 0.82 -0.3396"/>
  <path id="face7-interior" class="fil0 str1" d="M431.956 210.35m0 -13m-5 0m0 3m-3.5 0m0 2m1.3 0m0 2.2m-1.3 0m0 3m-3 0m0 -3m-1.3 0m0 -2.2m1.3 0m0 -2m-8.5 0m0 -3m3 0m0 -6.5m-0.2215 -1.6823m-0.6493 -1.5677m-1.033 -1.3462m-1.3462 -1.033m-1.5677 -0.6493m-1.6823 -0.2215m-6.5 0m0 26m6.1118 -20.9489m0.3882 -0.0511m0.3882 0.0511m0.3618 0.1499m0.3107 0.2383m0.2383 0.3107m0.1499 0.3618m0.0511 0.3882m-0.0511 0.3882m-0.1499 0.3618m-0.2383 0.3107m-0.3107 0.2383m-0.3618 0.1499m-0.3882 0.0511m-0.3882 -0.0511m-0.3618 -0.1499m-0.3107 -0.2383m-0.2383 -0.3107m-0.1499 -0.3618m-0.0511 -0.3882m0.0511 -0.3882m0.1499 -0.3618m0.2383 -0.3107m0.3107 -0.2383"/>
  <path id="face8-interior" class="fil0 str1" d="M340.788 261.478m0 16m10 0m0 -26m-20 0m0 10m4 0m0 -2m-1.3 0m0 -2.2m1.3 0m0 -3m3 0m0 3m1.3 0m0 2.2m-1.3 0m0 2m8.0511 9.8882m-0.0511 -0.3882m0.0511 -0.3882m0.1499 -0.3618m0.2383 -0.3107m0.3107 -0.2383m0.3618 -0.1499m0.3882 -0.0511m0.3882 0.0511m0.3618 0.1499m0.3107 0.2383m0.2383 0.3107m0.1499 0.3618m0.0511 0.3882m-0.0511 0.3882m-0.1499 0.3618m-0.2383 0.3107m-0.3107 0.2383m-0.3618 0.1499m-0.3882 0.0511m-0.3882 -0.0511m-0.3618 -0.1499m-0.3107 -0.2383m-0.2383 -0.3107"/>
  <path id="face12-interior" class="fil0 str1" d="M378.293 270.034m0 -10m-2.3 0m0 -3m-10.7 0m0 3m-3 0m0 10m3 0m0 3m10.7 0m0 -3m-9.95 -8m4.5 0m0 6m-4.5 0"/>
  <path id="face13-interior" class="fil0 str1" d="M388.293 273.034m20 0m0 -27m-20 0m3.3882 4.4489m-0.3882 0.0511m-0.3882 -0.0511m-0.3618 -0.1499m-0.3107 -0.2383m-0.2383 -0.3107m-0.1499 -0.3618m-0.0511 -0.3882m0.0511 -0.3882m0.1499 -0.3618m0.2383 -0.3107m0.3107 -0.2383m0.3618 -0.1499m0.3882 -0.0511m0.3882 0.0511m0.3618 0.1499m0.3107 0.2383m0.2383 0.3107m0.1499 0.3618m0.0511 0.3882m-0.0511 0.3882m-0.1499 0.3618m-0.2383 0.3107m-0.3107 0.2383m-2.1989 20.0892m-0.0511 -0.3882m0.0511 -0.3882m0.1499 -0.3618m0.2383 -0.3107m0.3107 -0.2383m0.3618 -0.1499m0.3882 -0.0511m0.3882 0.0511m0.3618 0.1499m0.3107 0.2383m0.2383 0.3107m0.1499 0.3618m0.0511 0.3882m-0.0511 0.3882m-0.1499 0.3618m-0.2383 0.3107m-0.3107 0.2383m-0.3618 0.1499m-0.3882 0.0511m-0.3882 -0.0511m-0.3618 -0.1499m-0.3107 -0.2383m-0.2383 -0.3107m14.9108 -2.1989m0.3882 -0.0511m0.3882 0.0511m0.3618 0.1499m0.3107 0.2383m0.2383 0.3107m0.1499 0.3618m0.0511 0.3882m-0.0511 0.3882m-0.1499 0.3618m-0.2383 0.3107m-0.3107 0.2383m-0.3618 0.1499m-0.3882 0.0511m-0.3882 -0.0511m-0.3618 -0.1499m-0.3107 -0.2383m-0.2383 -0.3107m-0.1499 -0.3618m-0.0511 -0.3882m0.0511 -0.3882m0.1499 -0.3618m0.2383 -0.3107m0.3107 -0.2383m-0.549 -18.951m-0.1499 -0.3618m-0.0511 -0.3882m0.0511 -0.3882m0.1499 -0.3618m0.2383 -0.3107m0.3107 -0.2383m0.3618 -0.1499m0.3882 -0.0511m0.3882 0.0511m0.3618 0.1499m0.3107 0.2383m0.2383 0.3107m0.1499 0.3618m0.0511 0.3882m-0.0511 0.3882m-0.1499 0.3618m-0.2383 0.3107m-0.3107 0.2383m-0.3618 0.1499m-0.3882 0.0511m-0.3882 -0.0511m-0.3618 -0.1499m-0.3107 -0.2383m-9.2234 9.5693m-0.1159 -0.88m0.1159 -0.88m0.3396 -0.82m0.5403 -0.7042m0.7042 -0.5403m0.82 -0.3396m0.88 -0.1159m0.88 0.1159m0.82 0.3396m0.7042 0.5403m0.5403 0.7042m0.3396 0.82m0.1159 0.88m-0.1159 0.88m-0.3396 0.82m-0.5403 0.7042m-0.7042 0.5403m-0.82 0.3396m-0.88 0.1159m-0.88 -0.1159m-0.82 -0.3396m-0.7042 -0.5403m-0.5403 -0.7042"/>
  <path id="face7-interior_7" class="fil0 str2" d="M431.956 210.35m0 -13m-5 0m0 3m-3.5 0m0 2m1.3 0m0 2.2m-1.3 0m0 3m-3 0m0 -3m-1.3 0m0 -2.2m1.3 0m0 -2m-8.5 0m0 -3m3 0m0 -6.5m-0.2215 -1.6823m-0.6493 -1.5677m-1.033 -1.3462m-1.3462 -1.033m-1.5677 -0.6493m-1.6823 -0.2215m-6.5 0m0 26m6.1118 -20.9489m0.3882 -0.0511m0.3882 0.0511m0.3618 0.1499m0.3107 0.2383m0.2383 0.3107m0.1499 0.3618m0.0511 0.3882m-0.0511 0.3882m-0.1499 0.3618m-0.2383 0.3107m-0.3107 0.2383m-0.3618 0.1499m-0.3882 0.0511m-0.3882 -0.0511m-0.3618 -0.1499m-0.3107 -0.2383m-0.2383 -0.3107m-0.1499 -0.3618m-0.0511 -0.3882m0.0511 -0.3882m0.1499 -0.3618m0.2383 -0.3107m0.3107 -0.2383"/>
  <path id="face8-interior_8" class="fil0 str2" d="M340.788 261.478m0 16m10 0m0 -26m-20 0m0 10m4 0m0 -2m-1.3 0m0 -2.2m1.3 0m0 -3m3 0m0 3m1.3 0m0 2.2m-1.3 0m0 2m8.0511 9.8882m-0.0511 -0.3882m0.0511 -0.3882m0.1499 -0.3618m0.2383 -0.3107m0.3107 -0.2383m0.3618 -0.1499m0.3882 -0.0511m0.3882 0.0511m0.3618 0.1499m0.3107 0.2383m0.2383 0.3107m0.1499 0.3618m0.0511 0.3882m-0.0511 0.3882m-0.1499 0.3618m-0.2383 0.3107m-0.3107 0.2383m-0.3618 0.1499m-0.3882 0.0511m-0.3882 -0.0511m-0.3618 -0.1499m-0.3107 -0.2383m-0.2383 -0.3107"/>
  <path id="face12-interior_9" class="fil0 str2" d="M378.293 270.034m0 -10m-2.3 0m0 -3m-10.7 0m0 3m-3 0m0 10m3 0m0 3m10.7 0m0 -3m-9.95 -8m4.5 0m0 6m-4.5 0"/>
  <path id="face13-interior_10" class="fil0 str2" d="M388.293 273.034m20 0m0 -27m-20 0m3.3882 4.4489m-0.3882 0.0511m-0.3882 -0.0511m-0.3618 -0.1499m-0.3107 -0.2383m-0.2383 -0.3107m-0.1499 -0.3618m-0.0511 -0.3882m0.0511 -0.3882m0.1499 -0.3618m0.2383 -0.3107m0.3107 -0.2383m0.3618 -0.1499m0.3882 -0.0511m0.3882 0.0511m0.3618 0.1499m0.3107 0.2383m0.2383 0.3107m0.1499 0.3618m0.0511 0.3882m-0.0511 0.3882m-0.1499 0.3618m-0.2383 0.3107m-0.3107 0.2383m-2.1989 20.0892m-0.0511 -0.3882m0.0511 -0.3882m0.1499 -0.3618m0.2383 -0.3107m0.3107 -0.2383m0.3618 -0.1499m0.3882 -0.0511m0.3882 0.0511m0.3618 0.1499m0.3107 0.2383m0.2383 0.3107m0.1499 0.3618m0.0511 0.3882m-0.0511 0.3882m-0.1499 0.3618m-0.2383 0.3107m-0.3107 0.2383m-0.3618 0.1499m-0.3882 0.0511m-0.3882 -0.0511m-0.3618 -0.1499m-0.3107 -0.2383m-0.2383 -0.3107m14.9108 -2.1989m0.3882 -0.0511m0.3882 0.0511m0.3618 0.1499m0.3107 0.2383m0.2383 0.3107m0.1499 0.3618m0.0511 0.3882m-0.0511 0.3882m-0.1499 0.3618m-0.2383 0.3107m-0.3107 0.2383m-0.3618 0.1499m-0.3882 0.0511m-0.3882 -0.0511m-0.3618 -0.1499m-0.3107 -0.2383m-0.2383 -0.3107m-0.1499 -0.3618m-0.0511 -0.3882m0.0511 -0.3882m0.1499 -0.3618m0.2383 -0.3107m0.3107 -0.2383m-0.549 -18.951m-0.1499 -0.3618m-0.0511 -0.3882m0.0511 -0.3882m0.1499 -0.3618m0.2383 -0.3107m0.3107 -0.2383m0.3618 -0.1499m0.3882 -0.0511m0.3882 0.0511m0.3618 0.1499m0.3107 0.2383m0.2383 0.3107m0.1499 0.3618m0.0511 0.3882m-0.0511 0.3882m-0.1499 0.3618m-0.2383 0.3107m-0.3107 0.2383m-0.3618 0.1499m-0.3882 0.0511m-0.3882 -0.0511m-0.3618 -0.1499m-0.3107 -0.2383m-9.2234 9.5693m-0.1159 -0.88m0.1159 -0.88m0.3396 -0.82m0.5403 -0.7042m0.7042 -0.5403m0.82 -0.3396m0.88 -0.1159m0.88 0.1159m0.82 0.3396m0.7042 0.5403m0.5403 0.7042m0.3396 0.82m0.1159 0.88m-0.1159 0.88m-0.3396 0.82m-0.5403 0.7042m-0.7042 0.5403m-0.82 0.3396m-0.88 0.1159m-0.88 -0.1159m-0.82 -0.3396m-0.7042 -0.5403m-0.5403 -0.7042"/>
  <path id="face1-cut" class="fil0 str0" d="M358.015 139.729l-0.046 -0.3494 0.046 -0.3494 0.1349 -0.3256 0.2145 -0.2796 0.2796 -0.2146 0.3256 -0.1348 0.3494 -0.046 0.3494 0.046 0.3256 0.1348 0.2796 0.2146 0.2145 0.2796 0.1349 0.3256 0.046 0.3494 -0.046 0.3494 -0.1349 0.3256 -0.2145 0.2796 -0.2796 0.2145 -0.3256 0.1349 -0.3494 0.046 -0.3494 -0.046 -0.3256 -0.1349 -0.2796 -0.2145 -0.2145 -0.2796 -0.1349 -0.3256m75.1349 0.3256l-0.1349 -0.3256 -0.046 -0.3494 0.046 -0.3494 0.1349 -0.3256 0.2145 -0.2796 0.2796 -0.2146 0.3256 -0.1348 0.3494 -0.046 0.3494 0.046 0.3256 0.1348 0.2796 0.2146 0.2145 0.2796 0.1349 0.3256 0.046 0.3494 -0.046 0.3494 -0.1349 0.3256 -0.2145 0.2796 -0.2796 0.2145 -0.3256 0.1349 -0.3494 0.046 -0.3494 -0.046 -0.3256 -0.1349 -0.2796 -0.2145 -0.2145 -0.2796m-73.8309 -33.025l0.3494 0.046 0.3256 0.1348 0.2796 0.2146 0.2145 0.2796 0.1349 0.3256 0.046 0.3494 -0.046 0.3494 -0.1349 0.3256 -0.2145 0.2796 -0.2796 0.2145 -0.3256 0.1349 -0.3494 0.046 -0.3494 -0.046 -0.3256 -0.1349 -0.2796 -0.2145 -0.2145 -0.2796 -0.1349 -0.3256 -0.046 -0.3494 0.046 -0.3494 0.1349 -0.3256 0.2145 -0.2796 0.2796 -0.2146 0.3256 -0.1348 0.3494 -0.046m73.5511 0.9617l0.1499 -0.3617 0.2383 -0.3107 0.3107 -0.2384 0.3618 -0.1498 0.3882 -0.0511 0.3882 0.0511 0.3618 0.1498 0.3107 0.2384 0.2383 0.3107 0.1499 0.3617 0.0511 0.3883 -0.0511 0.3882 -0.1499 0.3618 -0.2383 0.3106 -0.3107 0.2384 -0.3618 0.1498 -0.3882 0.0512 -0.3882 -0.0512 -0.3618 -0.1498 -0.3107 -0.2384 -0.2383 -0.3106 -0.1499 -0.3618 -0.0511 -0.3882 0.0511 -0.3883m-44.9629 -66.8428l-0.3882 0.0511 -0.3882 -0.0511 -0.3618 -0.1499 -0.3107 -0.2383 -0.2383 -0.3107 -0.1499 -0.3618 -0.0511 -0.3882 0.0511 -0.3882 0.1499 -0.3618 0.2383 -0.3107 0.3107 -0.2383 0.3618 -0.1499 0.3882 -0.0511 0.3882 0.0511 0.3618 0.1499 0.3107 0.2383 0.2383 0.3107 0.1499 0.3618 0.0511 0.3882 -0.0511 0.3882 -0.1499 0.3618 -0.2383 0.3107 -0.3107 0.2383 -0.3618 0.1499m-1.8882 10.0511l0 -5 1.5 0 1.5 0 0 5 -3 0m36.5 47l20 0 0 3 -20 0 0 -3m-70 3l-20 0 0 -3 20 0 0 3m-4.4193 21.7741l0.1193 0.9059 -0.1193 0.9058 -0.3496 0.8442 -0.5562 0.7248 -0.7249 0.5562 -0.8441 0.3497 -0.9059 0.1193 -0.9059 -0.1193 -0.8441 -0.3497 -0.7249 -0.5562 -0.5562 -0.7248 -0.3496 -0.8442 -0.1193 -0.9058 0.1193 -0.9059 0.3496 -0.8441 0.5562 -0.7249 0.7249 -0.5562 0.8441 -0.3497 0.9059 -0.1192 0.9059 0.1192 0.8441 0.3497 0.7249 0.5562 0.5562 0.7249 0.3496 0.8441m12.6193 12.9559l0 -24.1 73.6 0 0 24.1 -73.6 0m86.8 53.27l0 -47.9 3 0 0 -20 -3 0 0 -68.1 3 0 0 -10 -3 0 0 -10 -5 0 0 -3 -20 0 0 3 -70 0 0 -3 -20 0 0 3 -5 0 0 10 -3 0 0 10 3 0 0 76 -3 0 0 20 3 0 0 40 50 0 0 3 20 0 0 -3 50 0"/>
  <path id="face4-cut" class="fil0 str0" d="M444.553 249.048l-3 0 0 -48 -50 0 0 -3 -20 0 0 3 -50 0 0 36.5 17.7 0 0 9 -17.7 0 0 5 -3 0 0 10 3 0 0 4.6 17.2 0 0 12 -17.2 0 0 58.9 -3 0 0 10 3 0 0 10 120 0 0 -10 3 0 0 -10 -3 0 0 -68 3 0 0 -20m-63.3882 0.5511l0.3882 -0.0511 0.3882 0.0511 0.3618 0.1499 0.3107 0.2383 0.2383 0.3107 0.1499 0.3618 0.0511 0.3882 -0.0511 0.3882 -0.1499 0.3618 -0.2383 0.3107 -0.3107 0.2383 -0.3618 0.1499 -0.3882 0.0511 -0.3882 -0.0511 -0.3618 -0.1499 -0.3107 -0.2383 -0.2383 -0.3107 -0.1499 -0.3618 -0.0511 -0.3882 0.0511 -0.3882 0.1499 -0.3618 0.2383 -0.3107 0.3107 -0.2383 0.3618 -0.1499m0.3882 32.9489l0.3882 0.0511 0.3618 0.1499 0.3107 0.2383 0.2383 0.3107 0.1499 0.3618 0.0511 0.3882 -0.0511 0.3882 -0.1499 0.3618 -0.2383 0.3107 -0.3107 0.2383 -0.3618 0.1499 -0.3882 0.0511 -0.3882 -0.0511 -0.3618 -0.1499 -0.3107 -0.2383 -0.2383 -0.3107 -0.1499 -0.3618 -0.0511 -0.3882 0.0511 -0.3882 0.1499 -0.3618 0.2383 -0.3107 0.3107 -0.2383 0.3618 -0.1499 0.3882 -0.0511m-38.9264 58.5l-0.3882 -0.0511 -0.3618 -0.1499 -0.3107 -0.2383 -0.2383 -0.3107 -0.1499 -0.3618 -0.0511 -0.3882 0.0511 -0.3882 0.1499 -0.3618 0.2383 -0.3107 0.3107 -0.2383 0.3618 -0.1499 0.3882 -0.0511 0.3882 0.0511 0.3618 0.1499 0.3107 0.2383 0.2383 0.3107 0.1499 0.3618 0.0511 0.3882 -0.0511 0.3882 -0.1499 0.3618 -0.2383 0.3107 -0.3107 0.2383 -0.3618 0.1499 -0.3882 0.0511m1.5 13l-3 0 0 -10 3 0 0 10m76.3528 -13l-0.3882 -0.0511 -0.3618 -0.1499 -0.3107 -0.2383 -0.2383 -0.3107 -0.1499 -0.3618 -0.0511 -0.3882 0.0511 -0.3882 0.1499 -0.3618 0.2383 -0.3107 0.3107 -0.2383 0.3618 -0.1499 0.3882 -0.0511 0.3882 0.0511 0.3618 0.1499 0.3107 0.2383 0.2383 0.3107 0.1499 0.3618 0.0511 0.3882 -0.0511 0.3882 -0.1499 0.3618 -0.2383 0.3107 -0.3107 0.2383 -0.3618 0.1499 -0.3882 0.0511m-1.5 13l0 -10 3 0 0 10 -3 0m-92.4264 -62l0 -3 20 0 0 3 -20 0m91.8637 -34.0353l0.1363 1.0353 -0.1363 1.0353 -0.3996 0.9647 -0.6357 0.8284 -0.8284 0.6357 -0.9647 0.3996 -1.0353 0.1363 -1.0353 -0.1363 -0.9647 -0.3996 -0.8284 -0.6357 -0.6357 -0.8284 -0.3996 -0.9647 -0.1363 -1.0353 0.1363 -1.0353 0.3996 -0.9647 0.6357 -0.8284 0.8284 -0.6357 0.9647 -0.3996 1.0353 -0.1363 1.0353 0.1363 0.9647 0.3996 0.8284 0.6357 0.6357 0.8284 0.3996 0.9647"/>
  <path id="face4-interior" class="fil0 str1" d="M444.553 236.181m-3 0m0 -48m-50 0m0 -3m-20 0m0 3m-50 0m0 36.5m17.7 0m0 9m-17.7 0m0 5m-3 0m0 10m3 0m0 4.6m17.2 0m0 12m-17.2 0m0 58.9m-3 0m0 10m3 0m0 10m120 0m0 -10m3 0m0 -10m-3 0m0 -68m3 0m-63.3882 -19.4489m0.3882 -0.0511m0.3882 0.0511m0.3618 0.1499m0.3107 0.2383m0.2383 0.3107m0.1499 0.3618m0.0511 0.3882m-0.0511 0.3882m-0.1499 0.3618m-0.2383 0.3107m-0.3107 0.2383m-0.3618 0.1499m-0.3882 0.0511m-0.3882 -0.0511m-0.3618 -0.1499m-0.3107 -0.2383m-0.2383 -0.3107m-0.1499 -0.3618m-0.0511 -0.3882m0.0511 -0.3882m0.1499 -0.3618m0.2383 -0.3107m0.3107 -0.2383m0.75 32.799m0.3882 0.0511m0.3618 0.1499m0.3107 0.2383m0.2383 0.3107m0.1499 0.3618m0.0511 0.3882m-0.0511 0.3882m-0.1499 0.3618m-0.2383 0.3107m-0.3107 0.2383m-0.3618 0.1499m-0.3882 0.0511m-0.3882 -0.0511m-0.3618 -0.1499m-0.3107 -0.2383m-0.2383 -0.3107m-0.1499 -0.3618m-0.0511 -0.3882m0.0511 -0.3882m0.1499 -0.3618m0.2383 -0.3107m0.3107 -0.2383m0.3618 -0.1499m-38.5382 58.4489m-0.3882 -0.0511m-0.3618 -0.1499m-0.3107 -0.2383m-0.2383 -0.3107m-0.1499 -0.3618m-0.0511 -0.3882m0.0511 -0.3882m0.1499 -0.3618m0.2383 -0.3107m0.3107 -0.2383m0.3618 -0.1499m0.3882 -0.0511m0.3882 0.0511m0.3618 0.1499m0.3107 0.2383m0.2383 0.3107m0.1499 0.3618m0.0511 0.3882m-0.0511 0.3882m-0.1499 0.3618m-0.2383 0.3107m-0.3107 0.2383m-0.3618 0.1499m1.1118 13.0511m-3 0m0 -10m3 0m76.3528 -3m-0.3882 -0.0511m-0.3618 -0.1499m-0.3107 -0.2383m-0.2383 -0.3107m-0.1499 -0.3618m-0.0511 -0.3882m0.0511 -0.3882m0.1499 -0.3618m0.2383 -0.3107m0.3107 -0.2383m0.3618 -0.1499m0.3882 -0.0511m0.3882 0.0511m0.3618 0.1499m0.3107 0.2383m0.2383 0.3107m0.1499 0.3618m0.0511 0.3882m-0.0511 0.3882m-0.1499 0.3618m-0.2383 0.3107m-0.3107 0.2383m-0.3618 0.1499m-1.8882 13.0511m0 -10m3 0m0 10m-95.4264 -62m0 -3m20 0m0 3m71.8637 -34.0353m0.1363 1.0353m-0.1363 1.0353m-0.3996 0.9647m-0.6357 0.8284m-0.8284 0.6357m-0.9647 0.3996m-1.0353 0.1363m-1.0353 -0.1363m-0.9647 -0.3996m-0.8284 -0.6357m-0.6357 -0.8284m-0.3996 -0.9647m-0.1363 -1.0353m0.1363 -1.0353m0.3996 -0.9647m0.6357 -0.8284m0.8284 -0.6357m0.9647 -0.3996m1.0353 -0.1363m1.0353 0.1363m0.9647 0.3996m0.8284 0.6357m0.6357 0.8284"/>
  <path id="face4-interior_11" class="fil0 str2" d="M444.553 236.181m-3 0m0 -48m-50 0m0 -3m-20 0m0 3m-50 0m0 36.5m17.7 0m0 9m-17.7 0m0 5m-3 0m0 10m3 0m0 4.6m17.2 0m0 12m-17.2 0m0 58.9m-3 0m0 10m3 0m0 10m120 0m0 -10m3 0m0 -10m-3 0m0 -68m3 0m-63.3882 -19.4489m0.3882 -0.0511m0.3882 0.0511m0.3618 0.1499m0.3107 0.2383m0.2383 0.3107m0.1499 0.3618m0.0511 0.3882m-0.0511 0.3882m-0.1499 0.3618m-0.2383 0.3107m-0.3107 0.2383m-0.3618 0.1499m-0.3882 0.0511m-0.3882 -0.0511m-0.3618 -0.1499m-0.3107 -0.2383m-0.2383 -0.3107m-0.1499 -0.3618m-0.0511 -0.3882m0.0511 -0.3882m0.1499 -0.3618m0.2383 -0.3107m0.3107 -0.2383m0.75 32.799m0.3882 0.0511m0.3618 0.1499m0.3107 0.2383m0.2383 0.3107m0.1499 0.3618m0.0511 0.3882m-0.0511 0.3882m-0.1499 0.3618m-0.2383 0.3107m-0.3107 0.2383m-0.3618 0.1499m-0.3882 0.0511m-0.3882 -0.0511m-0.3618 -0.1499m-0.3107 -0.2383m-0.2383 -0.3107m-0.1499 -0.3618m-0.0511 -0.3882m0.0511 -0.3882m0.1499 -0.3618m0.2383 -0.3107m0.3107 -0.2383m0.3618 -0.1499m-38.5382 58.4489m-0.3882 -0.0511m-0.3618 -0.1499m-0.3107 -0.2383m-0.2383 -0.3107m-0.1499 -0.3618m-0.0511 -0.3882m0.0511 -0.3882m0.1499 -0.3618m0.2383 -0.3107m0.3107 -0.2383m0.3618 -0.1499m0.3882 -0.0511m0.3882 0.0511m0.3618 0.1499m0.3107 0.2383m0.2383 0.3107m0.1499 0.3618m0.0511 0.3882m-0.0511 0.3882m-0.1499 0.3618m-0.2383 0.3107m-0.3107 0.2383m-0.3618 0.1499m1.1118 13.0511m-3 0m0 -10m3 0m76.3528 -3m-0.3882 -0.0511m-0.3618 -0.1499m-0.3107 -0.2383m-0.2383 -0.3107m-0.1499 -0.3618m-0.0511 -0.3882m0.0511 -0.3882m0.1499 -0.3618m0.2383 -0.3107m0.3107 -0.2383m0.3618 -0.1499m0.3882 -0.0511m0.3882 0.0511m0.3618 0.1499m0.3107 0.2383m0.2383 0.3107m0.1499 0.3618m0.0511 0.3882m-0.0511 0.3882m-0.1499 0.3618m-0.2383 0.3107m-0.3107 0.2383m-0.3618 0.1499m-1.8882 13.0511m0 -10m3 0m0 10m-95.4264 -62m0 -3m20 0m0 3m71.8637 -34.0353m0.1363 1.0353m-0.1363 1.0353m-0.3996 0.9647m-0.6357 0.8284m-0.8284 0.6357m-0.9647 0.3996m-1.0353 0.1363m-1.0353 -0.1363m-0.9647 -0.3996m-0.8284 -0.6357m-0.6357 -0.8284m-0.3996 -0.9647m-0.1363 -1.0353m0.1363 -1.0353m0.3996 -0.9647m0.6357 -0.8284m0.8284 -0.6357m0.9647 -0.3996m1.0353 -0.1363m1.0353 0.1363m0.9647 0.3996m0.8284 0.6357m0.6357 0.8284"/>
  <path id="face5-cut" class="fil0 str0" d="M466.654 46.1796l0 23.5736 23.5736 0 12.4264 -9.5351 14.4709 -5.994 15.5291 -2.0445 15.5291 2.0445 14.4709 5.994 12.4264 9.5351 9.5351 12.4264 5.994 14.4709 2.0445 15.5291 -2.0445 15.5291 -5.994 14.4709 -9.5351 12.4264 -12.4264 9.5351 -14.4709 5.994 -15.5291 2.0445 -15.5291 -2.0445 -14.4709 -5.994 -12.4264 -9.5351 -23.5736 0 0 23.5736 132 0 0 -132 -132 0m114.1 129l-10 0 0 -3 10 0 0 3m14.9 -28l0 20 -3 0 0 -20 3 0m0 -70l-3 0 0 -20 3 0 0 20m-14.9 -28l0 3 -10 0 0 -3 10 0m-96.2 126l0 -3 10 0 0 3 -10 0m10 -126l0 3 -10 0 0 -3 10 0m91.2511 124.888l-0.0511 -0.3882 0.0511 -0.3882 0.1499 -0.3618 0.2383 -0.3107 0.3107 -0.2383 0.3618 -0.1499 0.3882 -0.0511 0.3882 0.0511 0.3618 0.1499 0.3107 0.2383 0.2383 0.3107 0.1499 0.3618 0.0511 0.3882 -0.0511 0.3882 -0.1499 0.3618 -0.2383 0.3107 -0.3107 0.2383 -0.3618 0.1499 -0.3882 0.0511 -0.3882 -0.0511 -0.3618 -0.1499 -0.3107 -0.2383 -0.2383 -0.3107 -0.1499 -0.3618m-109.1 0l-0.0511 -0.3882 0.0511 -0.3882 0.1499 -0.3618 0.2383 -0.3107 0.3107 -0.2383 0.3618 -0.1499 0.3882 -0.0511 0.3882 0.0511 0.3618 0.1499 0.3107 0.2383 0.2383 0.3107 0.1499 0.3618 0.0511 0.3882 -0.0511 0.3882 -0.1499 0.3618 -0.2383 0.3107 -0.3107 0.2383 -0.3618 0.1499 -0.3882 0.0511 -0.3882 -0.0511 -0.3618 -0.1499 -0.3107 -0.2383 -0.2383 -0.3107 -0.1499 -0.3618m109.1 -123l-0.0511 -0.3882 0.0511 -0.3882 0.1499 -0.3618 0.2383 -0.3107 0.3107 -0.2383 0.3618 -0.1499 0.3882 -0.0511 0.3882 0.0511 0.3618 0.1499 0.3107 0.2383 0.2383 0.3107 0.1499 0.3618 0.0511 0.3882 -0.0511 0.3882 -0.1499 0.3618 -0.2383 0.3107 -0.3107 0.2383 -0.3618 0.1499 -0.3882 0.0511 -0.3882 -0.0511 -0.3618 -0.1499 -0.3107 -0.2383 -0.2383 -0.3107 -0.1499 -0.3618m-109.1 0l-0.0511 -0.3882 0.0511 -0.3882 0.1499 -0.3618 0.2383 -0.3107 0.3107 -0.2383 0.3618 -0.1499 0.3882 -0.0511 0.3882 0.0511 0.3618 0.1499 0.3107 0.2383 0.2383 0.3107 0.1499 0.3618 0.0511 0.3882 -0.0511 0.3882 -0.1499 0.3618 -0.2383 0.3107 -0.3107 0.2383 -0.3618 0.1499 -0.3882 0.0511 -0.3882 -0.0511 -0.3618 -0.1499 -0.3107 -0.2383 -0.2383 -0.3107 -0.1499 -0.3618"/>
  <polyline id="face9-cut" class="fil0 str0" points="572.882,107.398 572.882,102.398 575.882,102.398 575.882,97.3983 562.882,97.3983 562.882,112.398 565.882,112.398 565.882,115.398 572.882,115.398 572.882,110.398 570.882,110.398 570.882,111.698 568.682,111.698 568.682,110.398 565.682,110.398 565.682,107.398 568.682,107.398 568.682,106.098 570.882,106.098 570.882,107.398 572.882,107.398 "/>
  <path id="face10-cut" class="fil0 str0" d="M550.3 145.794l-10 0 0 3 -3 0 0 -3 -10 0 0 3 -3 0 0 -3 -10 0 0 17 36 0 0 -17m-13 10l3 0 0 3 -3 0 0 -3m-13 3l0 -3 3 0 0 3 -3 0m-4 1l-3 0 0 -11 3 0 0 11m27 -11l0 11 -3 0 0 -11 3 0"/>
  <polyline id="face11-cut" class="fil0 str0" points="554.005,81.8128 554.005,84.8128 543.305,84.8128 543.305,81.8128 541.005,81.8128 541.005,91.8128 533.005,91.8128 533.005,94.8128 536.005,94.8128 536.005,101.813 533.005,101.813 533.005,104.813 536.005,104.813 557.005,84.8128 557.005,81.8128 554.005,81.8128 "/>
  <path id="face14-cut" class="fil0 str0" d="M494.081 118.092l-27 0 0 20 27 0 0 -20m-3 18.5l-0.3882 -0.0511 -0.3618 -0.1499 -0.3107 -0.2383 -0.2383 -0.3107 -0.1499 -0.3618 -0.0511 -0.3882 0.0511 -0.3882 0.1499 -0.3618 0.2383 -0.3107 0.3107 -0.2383 0.3618 -0.1499 0.3882 -0.0511 0.3882 0.0511 0.3618 0.1499 0.3107 0.2383 0.2383 0.3107 0.1499 0.3618 0.0511 0.3882 -0.0511 0.3882 -0.1499 0.3618 -0.2383 0.3107 -0.3107 0.2383 -0.3618 0.1499 -0.3882 0.0511m0 -14l-0.3882 -0.0511 -0.3618 -0.1499 -0.3107 -0.2383 -0.2383 -0.3107 -0.1499 -0.3618 -0.0511 -0.3882 0.0511 -0.3882 0.1499 -0.3618 0.2383 -0.3107 0.3107 -0.2383 0.3618 -0.1499 0.3882 -0.0511 0.3882 0.0511 0.3618 0.1499 0.3107 0.2383 0.2383 0.3107 0.1499 0.3618 0.0511 0.3882 -0.0511 0.3882 -0.1499 0.3618 -0.2383 0.3107 -0.3107 0.2383 -0.3618 0.1499 -0.3882 0.0511m-19.701 13.25l-0.2383 0.3107 -0.3107 0.2383 -0.3618 0.1499 -0.3882 0.0511 -0.3882 -0.0511 -0.3618 -0.1499 -0.3107 -0.2383 -0.2383 -0.3107 -0.1499 -0.3618 -0.0511 -0.3882 0.0511 -0.3882 0.1499 -0.3618 0.2383 -0.3107 0.3107 -0.2383 0.3618 -0.1499 0.3882 -0.0511 0.3882 0.0511 0.3618 0.1499 0.3107 0.2383 0.2383 0.3107 0.1499 0.3618 0.0511 0.3882 -0.0511 0.3882 -0.1499 0.3618m-0.549 -13.451l-0.3618 0.1499 -0.3882 0.0511 -0.3882 -0.0511 -0.3618 -0.1499 -0.3107 -0.2383 -0.2383 -0.3107 -0.1499 -0.3618 -0.0511 -0.3882 0.0511 -0.3882 0.1499 -0.3618 0.2383 -0.3107 0.3107 -0.2383 0.3618 -0.1499 0.3882 -0.0511 0.3882 0.0511 0.3618 0.1499 0.3107 0.2383 0.2383 0.3107 0.1499 0.3618 0.0511 0.3882 -0.0511 0.3882 -0.1499 0.3618 -0.2383 0.3107 -0.3107 0.2383m16.25 9.901l0 -8.4 -2 0 0 -2.5 3 0 0 13.4 -3 0 0 -2.5 2 0m-12.5 -10.9l3 0 0 2.5 -2 0 0 8.4 2 0 0 2.5 -3 0 0 -13.4"/>
  <path id="face15-cut" class="fil0 str0" d="M470.928 80.6224l-3 0 0 3 0 17 27 0 0 -20 -24 0m5 16.7l0 -13.4 12.5 0 0 13.4 -12.5 0m16 1.8l-0.3882 -0.0511 -0.3618 -0.1499 -0.3107 -0.2383 -0.2383 -0.3107 -0.1499 -0.3618 -0.0511 -0.3882 0.0511 -0.3882 0.1499 -0.3618 0.2383 -0.3107 0.3107 -0.2383 0.3618 -0.1499 0.3882 -0.0511 0.3882 0.0511 0.3618 0.1499 0.3107 0.2383 0.2383 0.3107 0.1499 0.3618 0.0511 0.3882 -0.0511 0.3882 -0.1499 0.3618 -0.2383 0.3107 -0.3107 0.2383 -0.3618 0.1499 -0.3882 0.0511m1.4489 -15.8882l0.0511 0.3882 -0.0511 0.3882 -0.1499 0.3618 -0.2383 0.3107 -0.3107 0.2383 -0.3618 0.1499 -0.3882 0.0511 -0.3882 -0.0511 -0.3618 -0.1499 -0.3107 -0.2383 -0.2383 -0.3107 -0.1499 -0.3618 -0.0511 -0.3882 0.0511 -0.3882 0.1499 -0.3618 0.2383 -0.3107 0.3107 -0.2383 0.3618 -0.1499 0.3882 -0.0511 0.3882 0.0511 0.3618 0.1499 0.3107 0.2383 0.2383 0.3107 0.1499 0.3618m-23.8978 14.7764l-0.0511 -0.3882 0.0511 -0.3882 0.1499 -0.3618 0.2383 -0.3107 0.3107 -0.2383 0.3618 -0.1499 0.3882 -0.0511 0.3882 0.0511 0.3618 0.1499 0.3107 0.2383 0.2383 0.3107 0.1499 0.3618 0.0511 0.3882 -0.0511 0.3882 -0.1499 0.3618 -0.2383 0.3107 -0.3107 0.2383 -0.3618 0.1499 -0.3882 0.0511 -0.3882 -0.0511 -0.3618 -0.1499 -0.3107 -0.2383 -0.2383 -0.3107 -0.1499 -0.3618m1.4489 -15.8882l0.3882 0.0511 0.3618 0.1499 0.3107 0.2383 0.2383 0.3107 0.1499 0.3618 0.0511 0.3882 -0.0511 0.3882 -0.1499 0.3618 -0.2383 0.3107 -0.3107 0.2383 -0.3618 0.1499 -0.3882 0.0511 -0.3882 -0.0511 -0.3618 -0.1499 -0.3107 -0.2383 -0.2383 -0.3107 -0.1499 -0.3618 -0.0511 -0.3882 0.0511 -0.3882 0.1499 -0.3618 0.2383 -0.3107 0.3107 -0.2383 0.3618 -0.1499 0.3882 -0.0511"/>
  <path id="face16-cut" class="fil0 str0" d="M562.654 138.18l0 -13 -5 0 0 3 -3.5 0 0 2 1.3 0 0 2.2 -1.3 0 0 3 -3 0 0 -3 -1.3 0 0 -2.2 1.3 0 0 -2 -8.5 0 0 -3 3 0 0 -6.5 -0.2215 -1.6823 -0.6493 -1.5677 -1.033 -1.3462 -1.3462 -1.033 -1.5677 -0.6493 -1.6823 -0.2215 -6.5 0 0 26 30 0m-23.8882 -20.9489l0.3882 -0.0511 0.3882 0.0511 0.3618 0.1499 0.3107 0.2383 0.2383 0.3107 0.1499 0.3618 0.0511 0.3882 -0.0511 0.3882 -0.1499 0.3618 -0.2383 0.3107 -0.3107 0.2383 -0.3618 0.1499 -0.3882 0.0511 -0.3882 -0.0511 -0.3618 -0.1499 -0.3107 -0.2383 -0.2383 -0.3107 -0.1499 -0.3618 -0.0511 -0.3882 0.0511 -0.3882 0.1499 -0.3618 0.2383 -0.3107 0.3107 -0.2383 0.3618 -0.1499"/>
  <path id="face17-cut" class="fil0 str0" d="M515.391 89.4329l-16 0 0 10 26 0 0 -20 -10 0 0 4 2 0 0 -1.3 2.2 0 0 1.3 3 0 0 3 -3 0 0 1.3 -2.2 0 0 -1.3 -2 0 0 3m-9.8882 5.0511l0.3882 -0.0511 0.3882 0.0511 0.3618 0.1499 0.3107 0.2383 0.2383 0.3107 0.1499 0.3618 0.0511 0.3882 -0.0511 0.3882 -0.1499 0.3618 -0.2383 0.3107 -0.3107 0.2383 -0.3618 0.1499 -0.3882 0.0511 -0.3882 -0.0511 -0.3618 -0.1499 -0.3107 -0.2383 -0.2383 -0.3107 -0.1499 -0.3618 -0.0511 -0.3882 0.0511 -0.3882 0.1499 -0.3618 0.2383 -0.3107 0.3107 -0.2383 0.3618 -0.1499"/>
  <polyline id="face18-cut" class="fil0 str0" points="520.391,109.433 520.391,112.433 509.691,112.433 509.691,109.433 507.391,109.433 507.391,119.433 499.391,119.433 499.391,122.433 502.391,122.433 502.391,129.433 499.391,129.433 499.391,132.433 502.391,132.433 523.391,112.433 523.391,109.433 520.391,109.433 "/>
  <path id="face5-interior" class="fil0 str1" d="M466.654 46.1796m0 23.5736m23.5736 0m12.4264 -9.5351m14.4709 -5.994m15.5291 -2.0445m15.5291 2.0445m14.4709 5.994m12.4264 9.5351m9.5351 12.4264m5.994 14.4709m2.0445 15.5291m-2.0445 15.5291m-5.994 14.4709m-9.5351 12.4264m-12.4264 9.5351m-14.4709 5.994m-15.5291 2.0445m-15.5291 -2.0445m-14.4709 -5.994m-12.4264 -9.5351m-23.5736 0m0 23.5736m132 0m0 -132m-17.9 129m-10 0m0 -3m10 0m14.9 -25m0 20m-3 0m0 -20m3 -70m-3 0m0 -20m3 0m-14.9 -8m0 3m-10 0m0 -3m-86.2 126m0 -3m10 0m0 3m0 -126m0 3m-10 0m0 -3m101.251 124.888m-0.0511 -0.3882m0.0511 -0.3882m0.1499 -0.3618m0.2383 -0.3107m0.3107 -0.2383m0.3618 -0.1499m0.3882 -0.0511m0.3882 0.0511m0.3618 0.1499m0.3107 0.2383m0.2383 0.3107m0.1499 0.3618m0.0511 0.3882m-0.0511 0.3882m-0.1499 0.3618m-0.2383 0.3107m-0.3107 0.2383m-0.3618 0.1499m-0.3882 0.0511m-0.3882 -0.0511m-0.3618 -0.1499m-0.3107 -0.2383m-0.2383 -0.3107m-109.25 -0.3618m-0.0511 -0.3882m0.0511 -0.3882m0.1499 -0.3618m0.2383 -0.3107m0.3107 -0.2383m0.3618 -0.1499m0.3882 -0.0511m0.3882 0.0511m0.3618 0.1499m0.3107 0.2383m0.2383 0.3107m0.1499 0.3618m0.0511 0.3882m-0.0511 0.3882m-0.1499 0.3618m-0.2383 0.3107m-0.3107 0.2383m-0.3618 0.1499m-0.3882 0.0511m-0.3882 -0.0511m-0.3618 -0.1499m-0.3107 -0.2383m-0.2383 -0.3107m108.95 -123.362m-0.0511 -0.3882m0.0511 -0.3882m0.1499 -0.3618m0.2383 -0.3107m0.3107 -0.2383m0.3618 -0.1499m0.3882 -0.0511m0.3882 0.0511m0.3618 0.1499m0.3107 0.2383m0.2383 0.3107m0.1499 0.3618m0.0511 0.3882m-0.0511 0.3882m-0.1499 0.3618m-0.2383 0.3107m-0.3107 0.2383m-0.3618 0.1499m-0.3882 0.0511m-0.3882 -0.0511m-0.3618 -0.1499m-0.3107 -0.2383m-0.2383 -0.3107m-109.25 -0.3618m-0.0511 -0.3882m0.0511 -0.3882m0.1499 -0.3618m0.2383 -0.3107m0.3107 -0.2383m0.3618 -0.1499m0.3882 -0.0511m0.3882 0.0511m0.3618 0.1499m0.3107 0.2383m0.2383 0.3107m0.1499 0.3618m0.0511 0.3882m-0.0511 0.3882m-0.1499 0.3618m-0.2383 0.3107m-0.3107 0.2383m-0.3618 0.1499m-0.3882 0.0511m-0.3882 -0.0511m-0.3618 -0.1499m-0.3107 -0.2383m-0.2383 -0.3107"/>
  <path id="face9-interior" class="fil0 str1" d="M572.882 107.398m0 -5m3 0m0 -5m-13 0m0 15m3 0m0 3m7 0m0 -5m-2 0m0 1.3m-2.2 0m0 -1.3m-3 0m0 -3m3 0m0 -1.3m2.2 0m0 1.3"/>
  <path id="face10-interior" class="fil0 str1" d="M550.3 145.794m-10 0m0 3m-3 0m0 -3m-10 0m0 3m-3 0m0 -3m-10 0m0 17m36 0m-13 -7m3 0m0 3m-3 0m-13 0m0 -3m3 0m0 3m-7 1m-3 0m0 -11m3 0m27 0m0 11m-3 0m0 -11"/>
  <path id="face11-interior" class="fil0 str1" d="M554.005 81.8128m0 3m-10.7 0m0 -3m-2.3 0m0 10m-8 0m0 3m3 0m0 7m-3 0m0 3m3 0m21 -20m0 -3"/>
  <path id="face14-interior" class="fil0 str1" d="M494.081 118.092m-27 0m0 20m27 0m-3 -1.5m-0.3882 -0.0511m-0.3618 -0.1499m-0.3107 -0.2383m-0.2383 -0.3107m-0.1499 -0.3618m-0.0511 -0.3882m0.0511 -0.3882m0.1499 -0.3618m0.2383 -0.3107m0.3107 -0.2383m0.3618 -0.1499m0.3882 -0.0511m0.3882 0.0511m0.3618 0.1499m0.3107 0.2383m0.2383 0.3107m0.1499 0.3618m0.0511 0.3882m-0.0511 0.3882m-0.1499 0.3618m-0.2383 0.3107m-0.3107 0.2383m-0.3618 0.1499m-0.3882 -13.9489m-0.3882 -0.0511m-0.3618 -0.1499m-0.3107 -0.2383m-0.2383 -0.3107m-0.1499 -0.3618m-0.0511 -0.3882m0.0511 -0.3882m0.1499 -0.3618m0.2383 -0.3107m0.3107 -0.2383m0.3618 -0.1499m0.3882 -0.0511m0.3882 0.0511m0.3618 0.1499m0.3107 0.2383m0.2383 0.3107m0.1499 0.3618m0.0511 0.3882m-0.0511 0.3882m-0.1499 0.3618m-0.2383 0.3107m-0.3107 0.2383m-0.3618 0.1499m-20.0892 13.3011m-0.2383 0.3107m-0.3107 0.2383m-0.3618 0.1499m-0.3882 0.0511m-0.3882 -0.0511m-0.3618 -0.1499m-0.3107 -0.2383m-0.2383 -0.3107m-0.1499 -0.3618m-0.0511 -0.3882m0.0511 -0.3882m0.1499 -0.3618m0.2383 -0.3107m0.3107 -0.2383m0.3618 -0.1499m0.3882 -0.0511m0.3882 0.0511m0.3618 0.1499m0.3107 0.2383m0.2383 0.3107m0.1499 0.3618m0.0511 0.3882m-0.0511 0.3882m-0.6989 -13.0892m-0.3618 0.1499m-0.3882 0.0511m-0.3882 -0.0511m-0.3618 -0.1499m-0.3107 -0.2383m-0.2383 -0.3107m-0.1499 -0.3618m-0.0511 -0.3882m0.0511 -0.3882m0.1499 -0.3618m0.2383 -0.3107m0.3107 -0.2383m0.3618 -0.1499m0.3882 -0.0511m0.3882 0.0511m0.3618 0.1499m0.3107 0.2383m0.2383 0.3107m0.1499 0.3618m0.0511 0.3882m-0.0511 0.3882m-0.1499 0.3618m-0.2383 0.3107m15.9393 10.1393m0 -8.4m-2 0m0 -2.5m3 0m0 13.4m-3 0m0 -2.5m-10.5 -10.9m3 0m0 2.5m-2 0m0 8.4m2 0m0 2.5m-3 0"/>
  <path id="face15-interior" class="fil0 str1" d="M470.928 80.6224m-3 0m0 3m0 17m27 0m0 -20m-19 16.7m0 -13.4m12.5 0m0 13.4m3.5 1.8m-0.3882 -0.0511m-0.3618 -0.1499m-0.3107 -0.2383m-0.2383 -0.3107m-0.1499 -0.3618m-0.0511 -0.3882m0.0511 -0.3882m0.1499 -0.3618m0.2383 -0.3107m0.3107 -0.2383m0.3618 -0.1499m0.3882 -0.0511m0.3882 0.0511m0.3618 0.1499m0.3107 0.2383m0.2383 0.3107m0.1499 0.3618m0.0511 0.3882m-0.0511 0.3882m-0.1499 0.3618m-0.2383 0.3107m-0.3107 0.2383m-0.3618 0.1499m1.0607 -15.8371m0.0511 0.3882m-0.0511 0.3882m-0.1499 0.3618m-0.2383 0.3107m-0.3107 0.2383m-0.3618 0.1499m-0.3882 0.0511m-0.3882 -0.0511m-0.3618 -0.1499m-0.3107 -0.2383m-0.2383 -0.3107m-0.1499 -0.3618m-0.0511 -0.3882m0.0511 -0.3882m0.1499 -0.3618m0.2383 -0.3107m0.3107 -0.2383m0.3618 -0.1499m0.3882 -0.0511m0.3882 0.0511m0.3618 0.1499m0.3107 0.2383m0.2383 0.3107m-23.7479 15.1382m-0.0511 -0.3882m0.0511 -0.3882m0.1499 -0.3618m0.2383 -0.3107m0.3107 -0.2383m0.3618 -0.1499m0.3882 -0.0511m0.3882 0.0511m0.3618 0.1499m0.3107 0.2383m0.2383 0.3107m0.1499 0.3618m0.0511 0.3882m-0.0511 0.3882m-0.1499 0.3618m-0.2383 0.3107m-0.3107 0.2383m-0.3618 0.1499m-0.3882 0.0511m-0.3882 -0.0511m-0.3618 -0.1499m-0.3107 -0.2383m-0.2383 -0.3107m1.299 -16.25m0.3882 0.0511m0.3618 0.1499m0.3107 0.2383m0.2383 0.3107m0.1499 0.3618m0.0511 0.3882m-0.0511 0.3882m-0.1499 0.3618m-0.2383 0.3107m-0.3107 0.2383m-0.3618 0.1499m-0.3882 0.0511m-0.3882 -0.0511m-0.3618 -0.1499m-0.3107 -0.2383m-0.2383 -0.3107m-0.1499 -0.3618m-0.0511 -0.3882m0.0511 -0.3882m0.1499 -0.3618m0.2383 -0.3107m0.3107 -0.2383m0.3618 -0.1499"/>
  <path id="face16-interior" class="fil0 str1" d="M562.654 138.18m0 -13m-5 0m0 3m-3.5 0m0 2m1.3 0m0 2.2m-1.3 0m0 3m-3 0m0 -3m-1.3 0m0 -2.2m1.3 0m0 -2m-8.5 0m0 -3m3 0m0 -6.5m-0.2215 -1.6823m-0.6493 -1.5677m-1.033 -1.3462m-1.3462 -1.033m-1.5677 -0.6493m-1.6823 -0.2215m-6.5 0m0 26m6.1118 -20.9489m0.3882 -0.0511m0.3882 0.0511m0.3618 0.1499m0.3107 0.2383m0.2383 0.3107m0.1499 0.3618m0.0511 0.3882m-0.0511 0.3882m-0.1499 0.3618m-0.2383 0.3107m-0.3107 0.2383m-0.3618 0.1499m-0.3882 0.0511m-0.3882 -0.0511m-0.3618 -0.1499m-0.3107 -0.2383m-0.2383 -0.3107m-0.1499 -0.3618m-0.0511 -0.3882m0.0511 -0.3882m0.1499 -0.3618m0.2383 -0.3107m0.3107 -0.2383"/>
  <path id="face17-interior" class="fil0 str1" d="M515.391 89.4329m-16 0m0 10m26 0m0 -20m-10 0m0 4m2 0m0 -1.3m2.2 0m0 1.3m3 0m0 3m-3 0m0 1.3m-2.2 0m0 -1.3m-2 0m-9.8882 8.0511m0.3882 -0.0511m0.3882 0.0511m0.3618 0.1499m0.3107 0.2383m0.2383 0.3107m0.1499 0.3618m0.0511 0.3882m-0.0511 0.3882m-0.1499 0.3618m-0.2383 0.3107m-0.3107 0.2383m-0.3618 0.1499m-0.3882 0.0511m-0.3882 -0.0511m-0.3618 -0.1499m-0.3107 -0.2383m-0.2383 -0.3107m-0.1499 -0.3618m-0.0511 -0.3882m0.0511 -0.3882m0.1499 -0.3618m0.2383 -0.3107m0.3107 -0.2383"/>
  <path id="face18-interior" class="fil0 str1" d="M520.391 109.433m0 3m-10.7 0m0 -3m-2.3 0m0 10m-8 0m0 3m3 0m0 7m-3 0m0 3m3 0m21 -20m0 -3"/>
  <path id="face5-interior_12" class="fil0 str2" d="M466.654 46.1796m0 23.5736m23.5736 0m12.4264 -9.5351m14.4709 -5.994m15.5291 -2.0445m15.5291 2.0445m14.4709 5.994m12.4264 9.5351m9.5351 12.4264m5.994 14.4709m2.0445 15.5291m-2.0445 15.5291m-5.994 14.4709m-9.5351 12.4264m-12.4264 9.5351m-14.4709 5.994m-15.5291 2.0445m-15.5291 -2.0445m-14.4709 -5.994m-12.4264 -9.5351m-23.5736 0m0 23.5736m132 0m0 -132m-17.9 129m-10 0m0 -3m10 0m14.9 -25m0 20m-3 0m0 -20m3 -70m-3 0m0 -20m3 0m-14.9 -8m0 3m-10 0m0 -3m-86.2 126m0 -3m10 0m0 3m0 -126m0 3m-10 0m0 -3m101.251 124.888m-0.0511 -0.3882m0.0511 -0.3882m0.1499 -0.3618m0.2383 -0.3107m0.3107 -0.2383m0.3618 -0.1499m0.3882 -0.0511m0.3882 0.0511m0.3618 0.1499m0.3107 0.2383m0.2383 0.3107m0.1499 0.3618m0.0511 0.3882m-0.0511 0.3882m-0.1499 0.3618m-0.2383 0.3107m-0.3107 0.2383m-0.3618 0.1499m-0.3882 0.0511m-0.3882 -0.0511m-0.3618 -0.1499m-0.3107 -0.2383m-0.2383 -0.3107m-109.25 -0.3618m-0.0511 -0.3882m0.0511 -0.3882m0.1499 -0.3618m0.2383 -0.3107m0.3107 -0.2383m0.3618 -0.1499m0.3882 -0.0511m0.3882 0.0511m0.3618 0.1499m0.3107 0.2383m0.2383 0.3107m0.1499 0.3618m0.0511 0.3882m-0.0511 0.3882m-0.1499 0.3618m-0.2383 0.3107m-0.3107 0.2383m-0.3618 0.1499m-0.3882 0.0511m-0.3882 -0.0511m-0.3618 -0.1499m-0.3107 -0.2383m-0.2383 -0.3107m108.95 -123.362m-0.0511 -0.3882m0.0511 -0.3882m0.1499 -0.3618m0.2383 -0.3107m0.3107 -0.2383m0.3618 -0.1499m0.3882 -0.0511m0.3882 0.0511m0.3618 0.1499m0.3107 0.2383m0.2383 0.3107m0.1499 0.3618m0.0511 0.3882m-0.0511 0.3882m-0.1499 0.3618m-0.2383 0.3107m-0.3107 0.2383m-0.3618 0.1499m-0.3882 0.0511m-0.3882 -0.0511m-0.3618 -0.1499m-0.3107 -0.2383m-0.2383 -0.3107m-109.25 -0.3618m-0.0511 -0.3882m0.0511 -0.3882m0.1499 -0.3618m0.2383 -0.3107m0.3107 -0.2383m0.3618 -0.1499m0.3882 -0.0511m0.3882 0.0511m0.3618 0.1499m0.3107 0.2383m0.2383 0.3107m0.1499 0.3618m0.0511 0.3882m-0.0511 0.3882m-0.1499 0.3618m-0.2383 0.3107m-0.3107 0.2383m-0.3618 0.1499m-0.3882 0.0511m-0.3882 -0.0511m-0.3618 -0.1499m-0.3107 -0.2383m-0.2383 -0.3107"/>
  <path id="face9-interior_13" class="fil0 str2" d="M572.882 107.398m0 -5m3 0m0 -5m-13 0m0 15m3 0m0 3m7 0m0 -5m-2 0m0 1.3m-2.2 0m0 -1.3m-3 0m0 -3m3 0m0 -1.3m2.2 0m0 1.3"/>
  <path id="face10-interior_14" class="fil0 str2" d="M550.3 145.794m-10 0m0 3m-3 0m0 -3m-10 0m0 3m-3 0m0 -3m-10 0m0 17m36 0m-13 -7m3 0m0 3m-3 0m-13 0m0 -3m3 0m0 3m-7 1m-3 0m0 -11m3 0m27 0m0 11m-3 0m0 -11"/>
  <path id="face11-interior_15" class="fil0 str2" d="M554.005 81.8128m0 3m-10.7 0m0 -3m-2.3 0m0 10m-8 0m0 3m3 0m0 7m-3 0m0 3m3 0m21 -20m0 -3"/>
  <path id="face14-interior_16" class="fil0 str2" d="M494.081 118.092m-27 0m0 20m27 0m-3 -1.5m-0.3882 -0.0511m-0.3618 -0.1499m-0.3107 -0.2383m-0.2383 -0.3107m-0.1499 -0.3618m-0.0511 -0.3882m0.0511 -0.3882m0.1499 -0.3618m0.2383 -0.3107m0.3107 -0.2383m0.3618 -0.1499m0.3882 -0.0511m0.3882 0.0511m0.3618 0.1499m0.3107 0.2383m0.2383 0.3107m0.1499 0.3618m0.0511 0.3882m-0.0511 0.3882m-0.1499 0.3618m-0.2383 0.3107m-0.3107 0.2383m-0.3618 0.1499m-0.3882 -13.9489m-0.3882 -0.0511m-0.3618 -0.1499m-0.3107 -0.2383m-0.2383 -0.3107m-0.1499 -0.3618m-0.0511 -0.3882m0.0511 -0.3882m0.1499 -0.3618m0.2383 -0.3107m0.3107 -0.2383m0.3618 -0.1499m0.3882 -0.0511m0.3882 0.0511m0.3618 0.1499m0.3107 0.2383m0.2383 0.3107m0.1499 0.3618m0.0511 0.3882m-0.0511 0.3882m-0.1499 0.3618m-0.2383 0.3107m-0.3107 0.2383m-0.3618 0.1499m-20.0892 13.3011m-0.2383 0.3107m-0.3107 0.2383m-0.3618 0.1499m-0.3882 0.0511m-0.3882 -0.0511m-0.3618 -0.1499m-0.3107 -0.2383m-0.2383 -0.3107m-0.1499 -0.3618m-0.0511 -0.3882m0.0511 -0.3882m0.1499 -0.3618m0.2383 -0.3107m0.3107 -0.2383m0.3618 -0.1499m0.3882 -0.0511m0.3882 0.0511m0.3618 0.1499m0.3107 0.2383m0.2383 0.3107m0.1499 0.3618m0.0511 0.3882m-0.0511 0.3882m-0.6989 -13.0892m-0.3618 0.1499m-0.3882 0.0511m-0.3882 -0.0511m-0.3618 -0.1499m-0.3107 -0.2383m-0.2383 -0.3107m-0.1499 -0.3618m-0.0511 -0.3882m0.0511 -0.3882m0.1499 -0.3618m0.2383 -0.3107m0.3107 -0.2383m0.3618 -0.1499m0.3882 -0.0511m0.3882 0.0511m0.3618 0.1499m0.3107 0.2383m0.2383 0.3107m0.1499 0.3618m0.0511 0.3882m-0.0511 0.3882m-0.1499 0.3618m-0.2383 0.3107m15.9393 10.1393m0 -8.4m-2 0m0 -2.5m3 0m0 13.4m-3 0m0 -2.5m-10.5 -10.9m3 0m0 2.5m-2 0m0 8.4m2 0m0 2.5m-3 0"/>
  <path id="face15-interior_17" class="fil0 str2" d="M470.928 80.6224m-3 0m0 3m0 17m27 0m0 -20m-19 16.7m0 -13.4m12.5 0m0 13.4m3.5 1.8m-0.3882 -0.0511m-0.3618 -0.1499m-0.3107 -0.2383m-0.2383 -0.3107m-0.1499 -0.3618m-0.0511 -0.3882m0.0511 -0.3882m0.1499 -0.3618m0.2383 -0.3107m0.3107 -0.2383m0.3618 -0.1499m0.3882 -0.0511m0.3882 0.0511m0.3618 0.1499m0.3107 0.2383m0.2383 0.3107m0.1499 0.3618m0.0511 0.3882m-0.0511 0.3882m-0.1499 0.3618m-0.2383 0.3107m-0.3107 0.2383m-0.3618 0.1499m1.0607 -15.8371m0.0511 0.3882m-0.0511 0.3882m-0.1499 0.3618m-0.2383 0.3107m-0.3107 0.2383m-0.3618 0.1499m-0.3882 0.0511m-0.3882 -0.0511m-0.3618 -0.1499m-0.3107 -0.2383m-0.2383 -0.3107m-0.1499 -0.3618m-0.0511 -0.3882m0.0511 -0.3882m0.1499 -0.3618m0.2383 -0.3107m0.3107 -0.2383m0.3618 -0.1499m0.3882 -0.0511m0.3882 0.0511m0.3618 0.1499m0.3107 0.2383m0.2383 0.3107m-23.7479 15.1382m-0.0511 -0.3882m0.0511 -0.3882m0.1499 -0.3618m0.2383 -0.3107m0.3107 -0.2383m0.3618 -0.1499m0.3882 -0.0511m0.3882 0.0511m0.3618 0.1499m0.3107 0.2383m0.2383 0.3107m0.1499 0.3618m0.0511 0.3882m-0.0511 0.3882m-0.1499 0.3618m-0.2383 0.3107m-0.3107 0.2383m-0.3618 0.1499m-0.3882 0.0511m-0.3882 -0.0511m-0.3618 -0.1499m-0.3107 -0.2383m-0.2383 -0.3107m1.299 -16.25m0.3882 0.0511m0.3618 0.1499m0.3107 0.2383m0.2383 0.3107m0.1499 0.3618m0.0511 0.3882m-0.0511 0.3882m-0.1499 0.3618m-0.2383 0.3107m-0.3107 0.2383m-0.3618 0.1499m-0.3882 0.0511m-0.3882 -0.0511m-0.3618 -0.1499m-0.3107 -0.2383m-0.2383 -0.3107m-0.1499 -0.3618m-0.0511 -0.3882m0.0511 -0.3882m0.1499 -0.3618m0.2383 -0.3107m0.3107 -0.2383m0.3618 -0.1499"/>
  <path id="face16-interior_18" class="fil0 str2" d="M562.654 138.18m0 -13m-5 0m0 3m-3.5 0m0 2m1.3 0m0 2.2m-1.3 0m0 3m-3 0m0 -3m-1.3 0m0 -2.2m1.3 0m0 -2m-8.5 0m0 -3m3 0m0 -6.5m-0.2215 -1.6823m-0.6493 -1.5677m-1.033 -1.3462m-1.3462 -1.033m-1.5677 -0.6493m-1.6823 -0.2215m-6.5 0m0 26m6.1118 -20.9489m0.3882 -0.0511m0.3882 0.0511m0.3618 0.1499m0.3107 0.2383m0.2383 0.3107m0.1499 0.3618m0.0511 0.3882m-0.0511 0.3882m-0.1499 0.3618m-0.2383 0.3107m-0.3107 0.2383m-0.3618 0.1499m-0.3882 0.0511m-0.3882 -0.0511m-0.3618 -0.1499m-0.3107 -0.2383m-0.2383 -0.3107m-0.1499 -0.3618m-0.0511 -0.3882m0.0511 -0.3882m0.1499 -0.3618m0.2383 -0.3107m0.3107 -0.2383"/>
  <path id="face17-interior_19" class="fil0 str2" d="M515.391 89.4329m-16 0m0 10m26 0m0 -20m-10 0m0 4m2 0m0 -1.3m2.2 0m0 1.3m3 0m0 3m-3 0m0 1.3m-2.2 0m0 -1.3m-2 0m-9.8882 8.0511m0.3882 -0.0511m0.3882 0.0511m0.3618 0.1499m0.3107 0.2383m0.2383 0.3107m0.1499 0.3618m0.0511 0.3882m-0.0511 0.3882m-0.1499 0.3618m-0.2383 0.3107m-0.3107 0.2383m-0.3618 0.1499m-0.3882 0.0511m-0.3882 -0.0511m-0.3618 -0.1499m-0.3107 -0.2383m-0.2383 -0.3107m-0.1499 -0.3618m-0.0511 -0.3882m0.0511 -0.3882m0.1499 -0.3618m0.2383 -0.3107m0.3107 -0.2383"/>
  <path id="face18-interior_20" class="fil0 str2" d="M520.391 109.433m0 3m-10.7 0m0 -3m-2.3 0m0 10m-8 0m0 3m3 0m0 7m-3 0m0 3m3 0m21 -20m0 -3"/>
  <path id="face6-cut" class="fil0 str0" d="M590.417 299.76l2.0445 -15.5291 -2.0445 -15.5291 -5.994 -14.4709 -9.5351 -12.4264 -12.4264 -9.5351 -14.4709 -5.994 -15.5291 -2.0445 -15.5291 2.0445 -14.4709 5.994 -12.4264 9.5351 -23.5736 0 0 84.8528 23.5736 0 12.4264 9.5351 14.4709 5.994 15.5291 2.0445 15.5291 -2.0445 14.4709 -5.994 12.4264 -9.5351 9.5351 -12.4264 5.994 -14.4709m-112.455 -51.4555l-0.0511 0.3882 -0.1499 0.3618 -0.2383 0.3107 -0.3107 0.2383 -0.3618 0.1499 -0.3882 0.0511 -0.3882 -0.0511 -0.3618 -0.1499 -0.3107 -0.2383 -0.2383 -0.3107 -0.1499 -0.3618 -0.0511 -0.3882 0.0511 -0.3882 0.1499 -0.3618 0.2383 -0.3107 0.3107 -0.2383 0.3618 -0.1499 0.3882 -0.0511 0.3882 0.0511 0.3618 0.1499 0.3107 0.2383 0.2383 0.3107 0.1499 0.3618 0.0511 0.3882m0 71.8528l-0.0511 0.3882 -0.1499 0.3618 -0.2383 0.3107 -0.3107 0.2383 -0.3618 0.1499 -0.3882 0.0511 -0.3882 -0.0511 -0.3618 -0.1499 -0.3107 -0.2383 -0.2383 -0.3107 -0.1499 -0.3618 -0.0511 -0.3882 0.0511 -0.3882 0.1499 -0.3618 0.2383 -0.3107 0.3107 -0.2383 0.3618 -0.1499 0.3882 -0.0511 0.3882 0.0511 0.3618 0.1499 0.3107 0.2383 0.2383 0.3107 0.1499 0.3618 0.0511 0.3882m3.5 -1.5l5 0 0 3 -5 0 0 -3m0 -68.8528l0 -3 5 0 0 3 -5 0"/>
 </g>
</svg>
